<?xml version="1.0" encoding="iso-8859-1"?>
<!-- Generator: Adobe Illustrator 19.0.0, SVG Export Plug-In . SVG Version: 6.00 Build 0)  -->
<svg xmlns="http://www.w3.org/2000/svg" xmlns:xlink="http://www.w3.org/1999/xlink" version="1.1" id="Capa_1" x="0px" y="0px" viewBox="0 0 512 512" style="enable-background:new 0 0 512 512;" xml:space="preserve">
<path style="fill:#FFFFFF;" d="M190.04,102.928c-64.688,0-117.136,52.448-117.136,117.152c0,5.656,0.536,11.184,1.304,16.616  C34.936,241.024,4,274.176,4,314.576v15.752c0,43.312,35.44,78.752,78.752,78.752h346.496c43.312,0,78.752-35.44,78.752-78.752  v-15.752c0-43.312-35.44-78.752-78.752-78.752H399.12c0.192-1.968,0.6-3.888,0.6-5.904c0-35.344-28.648-63.992-63.992-63.992  c-13.656,0-26.24,4.344-36.616,11.624C282.08,133.904,239.728,102.928,190.04,102.928L190.04,102.928z"/>
<path style="fill:#AAC1CE;" d="M429.248,413.08H82.752C37.12,413.08,0,375.952,0,330.328v-15.752  c0-40.672,29.704-74.944,69.736-81.32c-0.56-4.8-0.832-9.056-0.832-13.184c0-66.8,54.344-121.152,121.136-121.152  c48.6,0,91.624,28.352,110.928,72.656c10.552-6.336,22.472-9.656,34.76-9.656c37.496,0,67.992,30.496,67.992,67.992  c0,0.64-0.032,1.28-0.088,1.904h25.616c45.624,0.008,82.752,37.136,82.752,82.76v15.752C512,375.952,474.872,413.08,429.248,413.08z   M190.04,106.928c-62.384,0-113.136,50.76-113.136,113.152c0,4.848,0.408,9.952,1.272,16.056l0.576,4.088l-4.104,0.456  C36.656,244.856,8,276.632,8,314.576v15.752c0,41.216,33.528,74.752,74.752,74.752h346.496c41.216,0,74.752-33.528,74.752-74.752  v-15.752c0-41.216-33.528-74.752-74.752-74.752h-34.52l0.416-4.376c0.072-0.744,0.168-1.48,0.272-2.208  c0.152-1.096,0.304-2.184,0.304-3.32c0-33.08-26.912-59.992-59.992-59.992c-12.28,0-24.152,3.768-34.32,10.904l-4.168,2.92  l-1.848-4.744C278.304,135.216,236.952,106.928,190.04,106.928z"/>
<g>
</g>
<g>
</g>
<g>
</g>
<g>
</g>
<g>
</g>
<g>
</g>
<g>
</g>
<g>
</g>
<g>
</g>
<g>
</g>
<g>
</g>
<g>
</g>
<g>
</g>
<g>
</g>
<g>
</g>
</svg>
